<?xml version="1.0" standalone="no"?>
<!DOCTYPE svg PUBLIC "-//W3C//DTD SVG 20010904//EN"
 "http://www.w3.org/TR/2001/REC-SVG-20010904/DTD/svg10.dtd">
<svg version="1.0" xmlns="http://www.w3.org/2000/svg"
 width="862.000000pt" height="862.000000pt" viewBox="0 0 862.000000 862.000000"
 preserveAspectRatio="xMidYMid meet">
<metadata>
Created by potrace 1.14, written by Peter Selinger 2001-2017
</metadata>
<g transform="translate(0.000000,862.000000) scale(0.100000,-0.100000)"
fill="#000000" stroke="none">
<path d="M3880 8194 c-161 -21 -396 -58 -444 -70 -76 -20 -354 -131 -471 -190
-49 -24 -145 -85 -213 -134 -68 -50 -128 -87 -134 -84 -6 4 -8 2 -5 -3 4 -6
-19 -32 -51 -58 -135 -113 -322 -326 -392 -450 -73 -129 -150 -287 -173 -355
-37 -111 -110 -409 -126 -519 -5 -31 -20 -99 -34 -151 -44 -163 -62 -574 -43
-932 l9 -158 -45 0 c-76 0 -132 -64 -197 -225 -171 -419 -194 -504 -194 -710
1 -133 -2 -123 110 -415 33 -85 75 -184 93 -219 45 -90 179 -220 280 -271 25
-13 56 -31 69 -41 12 -10 38 -21 57 -25 19 -3 37 -10 39 -14 3 -5 21 -62 41
-127 55 -180 147 -418 210 -545 46 -91 111 -189 246 -370 62 -84 140 -190 173
-236 65 -92 153 -191 290 -327 115 -115 146 -141 340 -284 139 -103 185 -130
350 -209 215 -102 295 -130 515 -181 223 -52 445 -52 724 0 234 44 602 191
776 309 114 78 252 214 352 349 82 110 100 139 222 351 37 64 131 272 219 485
133 321 258 775 313 1134 6 40 10 44 53 62 92 39 115 55 157 108 89 113 175
296 231 492 37 132 38 137 38 304 -1 142 -4 182 -22 245 -55 196 -132 360
-197 423 -38 37 -158 107 -184 107 -5 0 -12 33 -15 74 -4 41 -18 131 -32 200
-14 69 -30 185 -36 258 -11 151 -37 311 -73 449 -48 184 -144 456 -204 579
-34 69 -73 157 -88 195 -37 97 -86 164 -210 295 -102 106 -252 225 -404 320
-30 19 -59 38 -65 42 -70 55 -150 109 -223 150 -20 11 -87 49 -148 84 -221
127 -460 215 -649 239 -66 9 -169 23 -230 31 -106 16 -526 28 -605 18z"/>
</g>
</svg>
