<?xml version="1.0" standalone="no"?>
<!DOCTYPE svg PUBLIC "-//W3C//DTD SVG 20010904//EN"
 "http://www.w3.org/TR/2001/REC-SVG-20010904/DTD/svg10.dtd">
<svg version="1.0" xmlns="http://www.w3.org/2000/svg"
 width="501.000000pt" height="501.000000pt" viewBox="0 0 501.000000 501.000000"
 preserveAspectRatio="xMidYMid meet">
<metadata>
Created by potrace 1.14, written by Peter Selinger 2001-2017
</metadata>
<g transform="translate(0.000000,501.000000) scale(0.100000,-0.100000)"
fill="#000000" stroke="none">
<path d="M660 4139 c0 -4 9 -13 20 -19 11 -6 20 -15 20 -20 0 -5 11 -21 25
-36 14 -15 25 -33 25 -40 0 -8 5 -14 10 -14 6 0 10 -5 10 -10 0 -10 8 -22 38
-55 7 -8 10 -19 7 -25 -3 -5 1 -10 9 -10 9 0 16 -7 16 -15 0 -9 6 -18 13 -21
8 -3 14 -10 14 -17 0 -21 35 -67 46 -60 5 3 7 1 3 -5 -3 -6 0 -17 8 -25 8 -8
12 -17 9 -21 -4 -3 -1 -6 5 -6 7 0 12 -5 12 -11 0 -6 7 -17 15 -26 8 -8 13
-18 10 -23 -3 -4 2 -11 11 -14 9 -4 14 -9 11 -12 -7 -8 16 -33 24 -28 4 2 10
-3 13 -12 4 -10 2 -13 -7 -8 -6 4 0 -5 15 -20 15 -16 25 -32 23 -37 -3 -4 3
-12 12 -18 10 -6 14 -11 9 -11 -5 0 -3 -7 4 -15 7 -8 9 -15 6 -15 -4 0 0 -7 8
-16 9 -8 14 -20 11 -25 -4 -5 -1 -9 4 -9 6 0 11 -6 11 -14 0 -8 10 -22 22 -30
15 -11 18 -16 8 -16 -9 -1 -4 -7 10 -15 15 -9 19 -15 10 -15 -12 0 -12 -3 2
-11 9 -5 15 -16 12 -23 -3 -8 4 -19 15 -26 12 -6 21 -16 21 -23 0 -7 -4 -6
-10 3 -6 9 -10 10 -10 3 0 -6 9 -18 21 -26 15 -11 17 -16 7 -20 -10 -4 -10 -6
0 -6 6 -1 12 -10 12 -21 0 -11 5 -20 11 -20 6 0 9 -9 6 -20 -3 -13 0 -20 9
-20 8 0 14 -9 14 -20 0 -11 5 -20 10 -20 6 0 10 -9 10 -20 0 -11 5 -20 11 -20
8 0 7 -6 -2 -17 -10 -11 -10 -14 -1 -9 8 5 12 0 12 -13 0 -12 5 -21 10 -21 6
0 10 -9 10 -21 0 -13 4 -18 13 -13 9 6 9 4 -1 -8 -9 -12 -10 -17 -1 -20 6 -2
12 -16 12 -31 -1 -15 3 -24 8 -21 5 3 9 -4 9 -16 0 -14 4 -19 13 -14 9 6 9 4
-1 -8 -10 -13 -10 -17 3 -22 9 -3 14 -10 10 -15 -3 -5 4 -26 15 -46 11 -20 16
-34 10 -30 -5 3 -10 1 -10 -4 0 -6 5 -11 11 -11 6 0 9 -7 5 -15 -3 -8 2 -19
12 -24 14 -8 14 -10 2 -11 -13 0 -13 -1 0 -10 8 -5 11 -10 6 -10 -4 0 -1 -11
7 -24 12 -17 13 -26 4 -35 -8 -8 -8 -11 2 -11 7 0 10 -4 6 -9 -3 -5 2 -16 10
-24 11 -12 12 -17 2 -20 -9 -4 -9 -6 1 -6 7 -1 12 -16 12 -41 0 -22 4 -40 8
-40 5 0 9 -21 11 -47 1 -26 8 -51 14 -55 9 -5 8 -8 -3 -8 -12 0 -12 -2 -2 -9
7 -4 12 -12 11 -17 -1 -5 -1 -52 0 -105 l1 -95 63 -31 c34 -17 76 -35 92 -39
17 -4 35 -9 40 -13 23 -13 110 -39 117 -35 5 3 8 0 8 -6 0 -6 4 -9 9 -5 5 3
12 1 16 -5 12 -19 69 4 71 28 0 8 48 162 72 237 9 28 16 56 16 63 -1 6 2 12 6
12 5 0 12 15 16 33 7 34 40 112 78 187 13 25 22 53 21 62 -2 10 2 21 7 25 7 4
8 1 3 -7 -5 -9 -4 -11 3 -6 7 4 12 13 12 20 0 7 9 25 21 40 11 14 17 26 13 26
-4 0 0 6 9 13 9 6 17 18 19 26 2 7 13 25 25 39 13 13 20 28 18 33 -3 4 4 14
15 22 11 7 17 17 13 20 -3 4 -1 7 6 7 7 0 9 5 6 10 -3 6 1 10 9 10 9 0 16 6
16 13 0 7 9 18 20 25 12 7 18 17 15 23 -4 5 -2 8 3 7 4 -2 26 15 48 37 21 22
40 38 41 35 1 -3 11 3 23 12 11 10 20 14 20 10 0 -4 4 -1 9 6 4 7 17 15 27 17
10 2 19 4 19 5 0 5 49 13 104 17 95 7 170 -22 229 -87 30 -33 104 -140 97
-140 -4 0 1 -10 9 -22 9 -12 16 -30 16 -40 0 -10 4 -18 8 -18 4 0 8 -8 8 -17
1 -10 4 -31 8 -48 25 -107 29 -175 33 -498 3 -264 1 -363 -8 -373 -9 -11 -9
-14 0 -14 8 0 9 -5 1 -19 -15 -29 -13 -181 3 -182 6 0 23 -3 37 -6 14 -3 35
-6 47 -7 11 -1 19 -4 17 -8 -4 -6 9 -10 89 -24 9 -1 21 -5 25 -8 16 -10 112
-15 107 -6 -3 5 4 14 15 20 11 6 18 15 15 20 -3 5 -1 11 5 15 5 3 10 15 10 26
0 10 5 19 10 19 6 0 10 10 10 23 0 13 5 28 11 34 6 6 11 17 13 24 5 29 18 59
25 59 4 0 14 23 21 50 7 28 17 50 22 50 4 0 7 3 7 8 -1 4 0 10 1 15 1 4 3 10
4 15 2 10 35 83 49 107 6 11 22 40 35 65 13 25 27 50 32 55 4 6 6 18 5 28 -2
9 5 23 16 30 10 8 16 17 12 20 -3 4 0 7 7 7 7 0 10 3 7 7 -4 3 3 18 15 31 13
14 17 22 9 17 -14 -8 13 39 36 63 7 7 13 22 13 33 0 10 5 19 10 19 6 0 10 7
10 15 0 8 5 15 11 15 5 0 8 4 5 9 -3 5 1 14 9 21 8 7 15 19 15 26 0 8 5 14 10
14 6 0 10 5 10 12 0 6 11 26 25 44 14 18 25 35 25 39 0 3 5 11 10 18 6 7 34
43 61 82 28 38 56 73 62 77 7 4 8 8 4 8 -4 0 4 12 18 26 14 14 22 30 19 36 -4
6 -3 8 3 5 5 -3 41 28 79 70 84 93 186 193 197 193 5 0 5 5 2 10 -3 6 -2 10 3
10 4 0 23 14 40 31 18 17 32 27 32 23 0 -5 4 -4 8 1 15 22 84 75 90 71 4 -2
13 3 21 12 13 13 11 14 -15 8 -43 -11 -97 -38 -111 -56 -7 -8 -13 -11 -13 -6
0 5 -9 1 -19 -8 -11 -10 -26 -19 -34 -20 -9 -1 -27 -11 -41 -21 -15 -11 -29
-19 -32 -17 -3 2 -13 -5 -22 -15 -9 -10 -41 -34 -69 -52 -29 -18 -51 -37 -48
-41 3 -5 -4 -6 -14 -3 -13 3 -21 -2 -26 -17 -4 -12 -9 -19 -12 -16 -6 6 -74
-42 -86 -62 -5 -7 -14 -9 -20 -6 -7 4 -9 4 -5 -1 8 -8 -40 -55 -56 -55 -4 0
-5 -7 -2 -16 3 -8 2 -13 -3 -9 -5 3 -19 -7 -31 -22 -12 -16 -19 -22 -15 -16 4
9 1 11 -10 7 -12 -5 -13 -9 -4 -20 10 -12 8 -13 -6 -8 -14 6 -16 4 -10 -6 6
-10 4 -12 -9 -7 -14 5 -17 3 -12 -8 3 -9 0 -15 -9 -15 -8 0 -15 -7 -15 -17 0
-9 -3 -14 -6 -10 -8 8 -34 -18 -34 -33 0 -6 -5 -8 -12 -4 -8 5 -9 2 -5 -10 4
-10 3 -15 -3 -11 -11 7 -51 -26 -44 -37 3 -4 -2 -8 -10 -8 -9 0 -16 -4 -16 -9
0 -4 -20 -29 -45 -53 -25 -25 -45 -50 -45 -57 0 -6 -5 -11 -10 -11 -6 0 -15
-11 -22 -25 -6 -13 -16 -22 -21 -18 -6 4 -8 0 -4 -10 4 -12 1 -17 -9 -17 -11
0 -14 -5 -10 -16 4 -12 2 -15 -9 -10 -8 3 -14 2 -14 -2 3 -17 -2 -35 -7 -29
-4 3 -25 -22 -48 -56 -22 -34 -44 -64 -47 -67 -3 -3 -11 -15 -18 -27 -6 -13
-20 -23 -30 -23 -18 0 -26 19 -37 95 -2 17 -7 46 -10 65 -3 19 -6 37 -6 40 0
3 -4 13 -10 23 -5 10 -16 44 -24 75 -15 59 -43 137 -75 209 -11 24 -19 46 -19
51 0 14 -25 62 -32 62 -5 0 -8 9 -8 20 0 11 -5 20 -12 20 -6 0 -9 3 -5 6 28
29 -187 273 -245 277 -10 1 -18 4 -18 8 0 8 -45 27 -85 34 -57 12 -180 14
-192 3 -7 -5 -17 -7 -23 -3 -5 3 -10 1 -10 -4 0 -6 -9 -11 -20 -11 -11 0 -28
-9 -37 -19 -9 -11 -21 -17 -26 -14 -5 3 -13 -1 -18 -8 -4 -8 -14 -14 -21 -15
-34 -3 -39 -5 -34 -13 3 -5 -1 -12 -10 -15 -10 -4 -13 -2 -8 7 3 6 -5 0 -18
-15 -14 -15 -28 -25 -31 -22 -3 4 -9 -5 -13 -20 -3 -14 -10 -26 -16 -26 -5 0
-6 5 -2 12 4 7 3 8 -4 4 -7 -4 -12 -14 -12 -23 0 -9 -6 -13 -14 -10 -10 4 -12
-1 -9 -16 4 -18 3 -19 -6 -7 -9 13 -11 13 -11 -2 0 -11 -8 -18 -20 -18 -14 0
-18 -5 -13 -17 5 -13 2 -15 -12 -10 -14 6 -16 5 -6 -7 9 -11 8 -15 -5 -20 -9
-3 -21 -3 -27 1 -7 4 -5 -2 3 -12 9 -11 10 -16 3 -11 -8 4 -13 1 -13 -8 0 -9
-5 -16 -11 -16 -5 0 -7 5 -3 12 4 7 3 8 -4 4 -7 -4 -12 -14 -12 -22 0 -8 -4
-14 -10 -14 -5 0 -10 -7 -10 -16 0 -10 -6 -14 -14 -11 -8 3 -17 -1 -20 -9 -3
-8 0 -14 7 -15 7 0 1 -5 -12 -10 -16 -6 -21 -14 -17 -25 4 -12 2 -15 -9 -10
-9 3 -15 0 -15 -9 0 -9 -13 -28 -28 -43 -15 -15 -19 -20 -8 -12 20 14 20 14 6
-5 -21 -28 -54 -63 -46 -47 5 7 1 12 -9 12 -10 0 -13 -5 -9 -12 5 -7 3 -8 -5
-4 -7 5 -10 10 -7 13 3 3 -5 14 -17 24 -16 13 -18 19 -7 19 12 0 12 3 -2 11
-11 6 -15 16 -11 26 4 11 3 14 -5 9 -8 -5 -12 1 -12 16 0 13 -9 30 -20 38 -11
8 -20 20 -20 27 0 7 -4 13 -10 13 -5 0 -10 9 -10 20 0 11 -9 29 -20 40 -11 11
-20 27 -20 35 0 9 -11 27 -25 41 -13 13 -24 25 -23 27 4 8 -15 47 -23 47 -6 0
-7 5 -4 10 3 6 1 10 -5 10 -6 0 -9 3 -7 8 6 10 -40 52 -49 44 -4 -4 -4 -1 0 6
5 8 1 19 -10 27 -11 7 -16 17 -12 21 4 4 -6 20 -22 36 -18 17 -28 34 -24 41 4
7 4 9 0 5 -10 -8 -36 14 -29 25 2 4 -1 7 -8 7 -7 0 -9 3 -6 6 3 4 -8 20 -24
35 -17 16 -28 29 -24 29 4 0 2 6 -4 13 -6 8 -7 18 -3 22 4 5 1 5 -6 1 -9 -5
-15 -1 -19 13 -3 12 -12 21 -20 21 -8 0 -11 5 -8 10 3 6 0 13 -9 16 -9 3 -12
12 -9 21 4 10 2 14 -4 10 -5 -4 -19 1 -29 9 -10 9 -13 13 -6 9 20 -10 14 6
-10 27 -13 11 -24 24 -24 29 -1 5 -2 12 -3 15 0 4 -9 0 -18 -7 -10 -9 -14 -9
-10 -2 5 7 -1 21 -13 33 -11 11 -17 20 -12 21 4 0 -4 5 -17 10 -14 6 -21 15
-17 24 3 8 0 17 -6 21 -7 5 -8 2 -4 -7 4 -8 1 -6 -7 3 -8 10 -17 14 -21 10 -4
-4 -7 -2 -6 3 5 24 -1 37 -14 32 -10 -4 -13 0 -11 14 4 18 2 19 -12 7 -9 -7
-14 -8 -10 -2 3 6 -3 16 -13 24 -10 8 -17 17 -14 22 3 4 0 8 -6 8 -12 0 -40
24 -40 35 0 3 5 3 12 -1 7 -4 8 -3 4 5 -4 6 -11 9 -16 6 -10 -6 -120 101 -112
110 4 4 2 6 -3 5 -19 -4 -50 2 -38 7 10 3 10 7 0 18 -7 7 -15 11 -18 9 -4 -2
-17 5 -29 16 -13 11 -27 20 -31 20 -5 0 -6 7 -3 15 5 11 2 13 -10 9 -11 -4
-16 -1 -16 12 0 16 -2 17 -10 4 -8 -13 -10 -12 -10 3 0 10 -8 21 -17 24 -10 4
-29 18 -42 32 -21 22 -24 23 -18 6 7 -19 6 -19 -11 1 -18 22 -62 38 -62 23z"/>
<path d="M2020 3907 c0 -4 -4 -5 -10 -2 -13 8 -90 -16 -90 -28 0 -5 -9 -7 -20
-4 -10 3 -19 2 -18 -2 3 -13 -14 -41 -22 -36 -5 3 -12 0 -16 -6 -4 -8 -3 -9 4
-5 7 4 12 3 12 -3 0 -6 -9 -15 -19 -21 -13 -6 -18 -18 -16 -30 3 -13 0 -18 -7
-14 -7 5 -9 1 -5 -9 3 -10 2 -17 -3 -17 -5 0 -7 -7 -4 -15 4 -8 1 -15 -7 -15
-7 0 -9 -3 -6 -7 4 -3 -1 -12 -11 -20 -10 -9 -11 -11 -2 -7 12 6 13 5 3 -7 -7
-9 -11 -51 -11 -115 1 -56 -2 -106 -6 -112 -4 -7 -2 -12 3 -12 6 0 10 -3 10
-7 -1 -5 -1 -10 1 -13 1 -3 4 -16 6 -30 3 -14 9 -27 15 -28 6 -3 5 -10 -3 -20
-10 -12 -10 -14 0 -8 7 4 12 1 12 -8 0 -9 5 -16 10 -16 6 0 9 -6 8 -12 -2 -7
3 -12 10 -10 8 1 11 -2 8 -7 -4 -5 0 -15 7 -23 7 -7 15 -17 18 -23 2 -5 7 -9
12 -7 4 1 7 -6 7 -15 0 -15 2 -16 10 -3 8 13 10 13 10 -2 0 -9 5 -20 12 -24 7
-5 8 -3 3 7 -8 12 -6 12 8 0 19 -15 137 -24 137 -10 0 5 11 11 25 15 14 3 22
11 18 17 -4 6 0 8 10 4 11 -4 14 -2 10 9 -3 8 1 14 11 14 9 0 15 3 15 8 -3 16
1 32 9 31 19 -3 23 2 12 16 -12 15 -11 16 10 19 6 0 9 4 8 7 -2 3 2 12 8 20 6
8 10 22 9 32 -2 9 1 15 6 11 8 -4 14 17 10 39 0 4 3 7 7 7 4 0 8 9 9 20 1 13
-2 18 -10 13 -7 -4 -6 0 2 10 7 9 11 23 8 31 -3 8 -1 17 6 20 7 2 8 5 2 5 -6
1 -9 29 -8 66 1 38 -2 65 -8 65 -6 0 -9 8 -7 18 2 9 -3 23 -12 30 -8 8 -9 11
-2 7 7 -4 12 0 12 10 0 9 -4 13 -10 10 -5 -3 -10 1 -10 11 0 9 -8 23 -17 31
-10 8 -12 12 -5 8 6 -3 12 -1 12 4 0 6 -5 11 -11 11 -6 0 -8 9 -4 23 4 12 3
17 -2 11 -6 -9 -11 -8 -21 2 -10 11 -10 14 0 15 7 0 3 4 -9 9 -13 5 -23 14
-23 20 0 6 -5 8 -12 4 -7 -5 -9 -2 -5 9 4 12 2 14 -10 10 -11 -4 -14 -3 -9 6
4 6 4 11 -1 10 -20 -3 -44 2 -39 9 2 4 -4 8 -15 8 -10 0 -19 -4 -19 -9z"/>
<path d="M3482 3316 c-77 -20 -121 -85 -139 -208 -9 -69 -10 -82 -1 -95 5 -6
5 -14 -2 -18 -6 -3 -8 -11 -4 -16 3 -6 7 -28 8 -49 1 -21 7 -45 13 -52 12 -14
13 -18 13 -44 0 -8 4 -12 10 -9 5 3 7 0 4 -8 -3 -8 2 -21 10 -30 9 -9 16 -20
16 -25 0 -5 12 -17 26 -27 49 -32 152 -4 193 54 47 65 63 121 62 221 0 115 -2
128 -41 207 -45 91 -90 118 -168 99z"/>
<path d="M459 2817 c-19 -4 -49 -10 -67 -12 -41 -5 -122 -43 -122 -56 0 -6 -4
-8 -9 -5 -5 3 -12 -1 -15 -10 -3 -8 -11 -12 -17 -8 -8 4 -9 3 -5 -5 4 -6 -2
-23 -13 -37 -16 -20 -19 -38 -17 -92 2 -75 37 -169 57 -156 7 4 9 3 5 -4 -9
-15 46 -76 86 -95 18 -9 27 -17 19 -17 -8 0 8 -15 35 -32 27 -18 50 -32 51
-30 2 1 12 -7 23 -18 12 -12 25 -18 30 -15 6 4 10 2 10 -2 0 -5 17 -17 38 -28
20 -11 56 -32 79 -47 23 -15 49 -28 57 -28 9 0 16 -5 16 -11 0 -6 6 -9 14 -6
8 3 17 -1 20 -9 3 -9 10 -12 16 -9 5 3 10 1 10 -5 0 -7 7 -9 16 -6 8 3 12 2 9
-4 -3 -6 1 -10 9 -10 9 0 16 -3 16 -7 0 -5 11 -13 25 -20 19 -8 23 -8 18 0 -3
7 4 3 16 -8 13 -11 24 -19 25 -17 1 4 13 0 61 -19 17 -7 33 -13 38 -14 4 -2
10 -4 15 -5 4 -1 10 -2 15 -1 4 0 7 -4 7 -10 0 -5 5 -7 10 -4 6 3 10 2 10 -3
0 -7 36 -29 60 -37 3 -1 21 -9 40 -17 64 -27 75 -31 88 -29 6 1 12 -3 12 -9 0
-6 4 -8 10 -5 5 3 10 1 10 -5 0 -6 6 -10 13 -9 6 1 30 -6 52 -16 22 -10 42
-19 45 -20 3 0 39 -14 80 -30 41 -16 78 -28 83 -27 4 1 7 -3 7 -9 0 -5 4 -8 9
-4 5 3 13 0 16 -6 4 -5 14 -8 22 -5 8 3 12 2 9 -3 -6 -9 30 -24 52 -22 6 1 12
-4 12 -10 0 -7 3 -9 7 -6 3 4 11 3 17 -2 7 -6 25 -13 41 -16 48 -10 49 -10 63
-18 6 -5 16 -6 21 -2 5 3 15 -1 23 -8 7 -8 21 -13 31 -11 9 1 17 -2 17 -7 0
-6 4 -8 9 -5 4 3 17 -1 27 -8 13 -10 23 -11 31 -4 10 8 13 6 13 -7 0 -10 3
-15 7 -12 3 4 12 2 20 -4 10 -9 13 -8 13 1 0 9 3 10 13 1 8 -6 17 -8 20 -4 4
3 7 1 7 -6 0 -7 6 -11 14 -8 8 3 17 3 21 -1 4 -4 10 -7 13 -8 22 -3 69 -18 80
-27 6 -5 12 -6 12 -2 0 4 6 3 13 -3 6 -6 17 -11 22 -12 28 -3 61 -14 73 -23 6
-5 12 -6 12 -2 0 4 7 2 15 -5 8 -7 15 -9 15 -6 0 4 8 2 19 -3 10 -6 33 -12 52
-14 19 -2 41 -7 49 -11 8 -3 24 -7 35 -9 11 -2 28 -7 38 -10 19 -8 46 -16 50
-17 9 0 108 -38 114 -43 3 -4 13 -1 21 6 13 9 14 9 8 0 -5 -9 1 -13 18 -13 14
0 26 -4 26 -8 0 -4 11 -9 25 -10 47 -3 55 -5 55 -14 0 -5 4 -7 9 -3 5 3 12 1
15 -3 3 -5 19 -8 36 -7 16 1 30 -2 30 -7 0 -5 10 -9 23 -8 12 1 25 1 30 0 4
-1 10 -3 15 -4 4 -1 12 -5 19 -9 6 -4 23 -8 37 -9 14 -1 26 -7 26 -12 0 -5 3
-7 6 -3 4 3 23 0 43 -7 20 -8 70 -19 111 -26 41 -6 86 -14 100 -17 14 -4 34
-8 45 -9 58 -9 132 -29 144 -38 12 -9 13 -8 6 4 -8 13 -7 13 8 1 9 -7 17 -10
17 -6 0 4 7 2 15 -5 8 -7 15 -10 15 -7 0 3 15 1 33 -3 17 -5 46 -11 62 -14 87
-13 122 -19 140 -22 11 -2 52 -6 90 -9 39 -3 88 -8 110 -11 85 -13 116 -14
298 -18 103 -2 187 0 187 3 0 4 14 6 30 5 17 -1 30 2 30 8 0 5 4 7 8 4 17 -10
110 26 142 54 19 17 37 30 42 30 4 0 7 3 6 8 -1 4 6 22 16 40 11 23 17 51 15
85 -3 55 -18 117 -29 117 -3 0 -12 15 -19 33 -13 30 -133 146 -162 156 -7 2
-22 12 -33 23 -11 10 -23 18 -27 18 -4 0 -14 6 -21 13 -23 22 -98 67 -98 60 0
-5 -4 -3 -8 3 -8 12 -75 44 -91 44 -6 0 -11 4 -11 9 0 5 -8 11 -17 14 -10 3
-29 12 -43 20 -70 42 -171 87 -180 82 -6 -3 -10 -1 -10 4 0 6 -7 11 -15 11 -8
0 -15 5 -15 10 0 6 -7 10 -15 10 -8 0 -44 14 -80 30 -36 17 -71 30 -78 30 -7
0 -17 4 -22 9 -6 6 -23 12 -39 15 -34 6 -45 -5 -77 -74 -12 -25 -27 -48 -33
-52 -6 -4 -7 -8 -3 -8 4 0 3 -9 -3 -21 -28 -52 -23 -67 27 -90 80 -35 138 -63
143 -70 7 -8 44 -22 53 -21 4 1 7 -3 7 -8 0 -6 9 -10 19 -10 11 0 23 -5 26
-10 4 -6 11 -8 16 -5 5 4 9 1 9 -4 0 -6 9 -11 20 -11 11 0 20 -4 20 -10 0 -5
9 -10 19 -10 11 0 21 -3 23 -7 4 -10 110 -59 120 -56 4 2 8 -2 8 -7 0 -6 7
-10 15 -10 8 0 15 -4 15 -10 0 -5 7 -10 15 -10 8 0 15 -5 15 -11 0 -5 4 -7 10
-4 6 3 10 2 10 -3 0 -6 20 -19 44 -31 25 -11 47 -25 51 -31 3 -6 11 -8 16 -5
5 4 9 1 9 -4 0 -6 7 -11 15 -11 9 0 18 -7 21 -15 4 -8 11 -12 17 -8 5 3 7 1 3
-5 -3 -6 -2 -14 4 -17 7 -4 4 -13 -8 -23 -15 -14 -38 -17 -113 -15 -52 0 -121
5 -154 9 -33 4 -72 8 -87 8 -16 1 -28 3 -28 6 0 3 -26 5 -58 6 -31 0 -76 4
-99 8 -23 4 -55 9 -70 11 -84 11 -126 19 -223 40 -104 22 -111 23 -145 30 -16
3 -111 26 -210 50 -99 24 -216 51 -260 60 -44 9 -89 20 -100 24 -23 10 -125
41 -140 42 -5 1 -21 6 -35 11 -14 6 -50 17 -80 25 -60 16 -61 17 -105 27 -16
4 -37 10 -45 12 -8 3 -17 5 -20 6 -3 0 -14 5 -25 11 -11 6 -22 12 -25 12 -3 1
-21 6 -40 13 -19 6 -46 14 -60 16 -14 3 -26 5 -27 7 -2 1 -6 2 -10 3 -5 2 -28
8 -53 15 -25 7 -46 13 -48 12 -1 -1 -15 5 -31 13 -15 8 -39 17 -52 20 -13 2
-46 14 -73 25 -27 12 -59 22 -72 23 -13 1 -24 5 -24 9 0 3 -6 6 -12 7 -19 1
-39 7 -73 21 -16 7 -37 14 -46 16 -8 2 -35 12 -60 24 -24 11 -55 22 -69 25
-21 4 -203 76 -265 105 -11 6 -54 24 -95 42 -41 17 -103 45 -138 60 -34 16
-64 29 -66 29 -2 0 -24 9 -50 20 -25 12 -48 19 -50 18 -2 -2 -12 4 -22 13 -28
25 -222 128 -228 121 -3 -3 -6 0 -6 7 0 7 -15 19 -32 27 -35 15 -70 35 -78 45
-3 3 -13 8 -23 12 -10 4 -15 11 -12 17 3 5 0 8 -7 5 -7 -2 -21 7 -31 20 -29
40 -7 52 89 50 44 -1 86 -5 92 -9 7 -4 12 -2 12 4 0 6 5 8 12 4 7 -4 33 -9 58
-10 25 -1 84 -9 133 -17 62 -10 87 -11 87 -3 0 7 3 8 8 1 4 -6 14 -11 22 -11
8 0 23 -4 34 -9 11 -5 21 -3 26 5 6 10 8 10 12 0 2 -7 21 -14 41 -14 20 -1 37
-5 37 -10 0 -5 3 -6 7 -3 3 4 12 2 20 -4 10 -9 13 -8 13 1 0 9 3 10 13 1 8 -6
17 -8 20 -4 4 3 7 1 7 -7 0 -10 3 -10 15 0 8 7 15 8 15 3 0 -6 10 -10 23 -9
12 1 21 7 19 14 -1 7 -4 27 -6 45 -3 18 -5 34 -6 37 -1 3 -2 13 -1 23 1 9 -3
17 -10 17 -7 0 -9 3 -6 7 4 3 -1 15 -10 26 -10 11 -12 17 -5 13 6 -4 12 -2 12
3 0 6 -4 11 -8 11 -8 0 -11 12 -13 50 -1 27 -48 52 -102 55 -29 2 -70 7 -92
10 -22 3 -62 8 -90 10 -27 1 -77 6 -110 10 -83 11 -434 12 -476 2z m-159 -432
c13 -14 21 -25 18 -25 -2 0 -15 11 -28 25 -13 14 -21 25 -18 25 2 0 15 -11 28
-25z"/>
<path d="M2224 2507 c-6 -7 -14 -25 -17 -39 -4 -15 -13 -33 -20 -40 -8 -7 -12
-19 -9 -26 2 -6 -1 -12 -7 -12 -6 0 -10 -3 -10 -7 1 -5 0 -10 -1 -13 -1 -3 -3
-17 -4 -32 -2 -20 1 -25 12 -20 10 3 13 1 8 -6 -4 -7 -4 -12 1 -13 4 0 22 -3
38 -5 17 -3 36 -6 43 -6 6 -1 12 -5 12 -10 0 -5 6 -8 13 -7 6 1 19 0 27 -3 14
-5 104 -31 155 -44 11 -3 29 -6 40 -7 11 -1 22 -5 25 -9 3 -4 21 -10 40 -13
54 -10 54 -10 75 -21 11 -6 40 -16 65 -23 25 -7 54 -17 65 -22 21 -9 135 -43
147 -43 3 -1 10 -4 14 -8 4 -5 14 -8 23 -8 9 0 28 -7 44 -14 15 -8 28 -12 28
-8 1 4 2 43 4 88 1 44 5 86 9 92 4 7 2 12 -4 12 -6 0 -8 5 -5 11 8 11 -3 64
-11 56 -3 -2 -39 6 -81 19 -42 13 -80 21 -84 18 -5 -3 -9 0 -9 7 0 7 -3 10 -6
6 -4 -3 -19 0 -34 8 -22 11 -30 12 -33 2 -3 -7 -6 -5 -6 5 -1 11 -6 15 -16 12
-8 -4 -15 -1 -15 5 0 6 -7 8 -15 5 -8 -4 -15 -1 -15 5 0 6 -5 11 -11 11 -5 0
-7 -4 -4 -10 3 -6 -1 -7 -9 -4 -9 3 -16 11 -16 16 0 6 -7 8 -15 5 -8 -4 -17
-2 -21 4 -3 6 -12 8 -19 5 -7 -2 -17 0 -21 4 -5 5 -21 11 -34 14 -14 2 -25 5
-25 6 0 1 -11 4 -25 6 -74 14 -113 25 -127 37 -9 6 -13 6 -13 -1 0 -6 -13 -4
-32 5 -42 21 -100 26 -114 10z"/>
<path d="M940 1760 c0 -6 3 -10 8 -10 4 0 25 -17 47 -38 38 -36 235 -172 249
-172 3 0 41 -22 84 -48 173 -109 466 -243 692 -317 80 -26 154 -49 164 -51 20
-4 81 -22 106 -31 17 -7 37 -12 65 -17 11 -3 36 -9 55 -16 19 -6 47 -13 62
-15 14 -2 59 -11 100 -19 40 -8 96 -18 123 -21 28 -3 59 -8 70 -10 11 -2 43
-7 70 -10 28 -3 64 -7 80 -10 157 -23 655 -41 655 -24 0 6 -31 14 -105 26 -16
3 -38 9 -47 14 -24 13 -40 11 -33 -3 4 -7 1 -6 -7 2 -7 9 -25 15 -41 13 -17
-1 -25 2 -21 9 4 6 -3 5 -16 -2 -20 -11 -22 -10 -17 4 4 10 3 15 -3 11 -6 -3
-16 -3 -22 2 -19 11 -39 13 -32 2 3 -5 10 -6 16 -3 7 4 8 2 4 -4 -8 -13 -36
-5 -36 10 0 5 -10 6 -21 3 -15 -5 -19 -4 -15 4 4 6 3 11 -3 11 -5 0 -12 -6
-14 -12 -3 -8 -6 -5 -6 6 -1 14 -4 16 -15 7 -10 -9 -16 -8 -26 4 -15 18 -34
20 -25 3 4 -7 0 -5 -8 5 -8 9 -28 17 -46 17 -17 0 -31 5 -31 11 0 8 -6 7 -17
-2 -11 -10 -14 -10 -9 -1 7 12 -4 15 -56 15 -17 -1 -25 3 -21 10 4 6 0 8 -10
4 -9 -3 -19 -2 -22 3 -3 5 -14 7 -25 5 -11 -2 -20 1 -20 7 0 5 -7 8 -15 4 -10
-3 -15 1 -15 12 0 13 -2 14 -9 3 -5 -7 -10 -9 -12 -3 -2 6 -17 12 -34 14 -16
1 -33 6 -36 10 -3 5 -17 9 -32 10 -15 1 -27 6 -27 11 0 5 -6 4 -14 -2 -8 -7
-15 -8 -18 -2 -1 5 -16 11 -33 13 -16 2 -36 10 -43 18 -8 8 -11 9 -7 3 3 -7 1
-13 -4 -13 -6 0 -11 4 -11 8 0 4 -8 9 -17 10 -31 3 -57 9 -83 19 -17 7 -29 7
-38 0 -9 -7 -11 -6 -6 6 4 12 1 15 -15 12 -12 -2 -21 1 -21 9 0 7 -11 11 -29
10 -20 -1 -32 4 -36 15 -6 14 -8 14 -15 -4 -7 -17 -9 -17 -9 -2 -1 9 -8 17
-17 17 -8 0 -12 -4 -9 -10 9 -15 -2 -12 -19 5 -8 8 -26 16 -40 17 -14 1 -26 6
-26 10 0 4 -13 8 -29 8 -17 0 -33 5 -36 10 -4 6 -11 8 -16 4 -5 -3 -15 -1 -22
4 -9 8 -115 44 -137 47 -3 0 -10 3 -16 7 -10 7 -39 14 -96 25 -15 3 -32 11
-38 18 -6 7 -20 11 -30 8 -11 -3 -20 0 -20 6 0 6 -3 10 -7 10 -21 -3 -44 2
-39 9 2 4 -3 8 -12 9 -9 1 -26 4 -37 6 -11 3 -24 6 -28 6 -5 1 -6 5 -3 10 4 5
-3 7 -14 4 -12 -3 -20 0 -20 6 0 7 -4 9 -10 6 -5 -3 -10 -2 -10 4 0 5 -8 8
-17 7 -10 -2 -25 1 -33 5 -39 21 -102 47 -144 60 -25 7 -46 16 -46 20 0 3 -6
6 -12 7 -25 2 -88 27 -88 34 0 5 -6 8 -14 8 -8 0 -52 17 -98 38 -105 49 -118
54 -118 42z"/>
</g>
</svg>
